<mxfile host="app.diagrams.net" modified="2021-05-17T11:51:37.740Z" agent="5.0 (Windows NT 10.0; Win64; x64) AppleWebKit/537.36 (KHTML, like Gecko) Chrome/90.0.4430.212 Safari/537.36" etag="TgjKoLhOyUx7wqdJn5Wi" version="14.6.13" type="github">
  <diagram id="prtHgNgQTEPvFCAcTncT" name="Page-1">
    <mxGraphModel dx="1422" dy="705" grid="1" gridSize="10" guides="1" tooltips="1" connect="1" arrows="1" fold="1" page="1" pageScale="1" pageWidth="827" pageHeight="1169" math="0" shadow="0">
      <root>
        <mxCell id="0" />
        <mxCell id="1" parent="0" />
        <mxCell id="FP_Z5jyi7RjLG5Vz_oTM-2" value="Add Trade" style="rounded=0;whiteSpace=wrap;html=1;fillColor=#fff2cc;strokeColor=#d6b656;" vertex="1" parent="1">
          <mxGeometry x="60" y="60" width="120" height="60" as="geometry" />
        </mxCell>
        <mxCell id="FP_Z5jyi7RjLG5Vz_oTM-14" style="edgeStyle=orthogonalEdgeStyle;rounded=0;orthogonalLoop=1;jettySize=auto;html=1;exitX=0;exitY=1;exitDx=0;exitDy=0;entryX=0.5;entryY=0;entryDx=0;entryDy=0;" edge="1" parent="1" source="FP_Z5jyi7RjLG5Vz_oTM-3" target="FP_Z5jyi7RjLG5Vz_oTM-5">
          <mxGeometry relative="1" as="geometry" />
        </mxCell>
        <mxCell id="FP_Z5jyi7RjLG5Vz_oTM-3" value="Angular11/Postman" style="text;html=1;strokeColor=#23445d;fillColor=#bac8d3;align=center;verticalAlign=middle;whiteSpace=wrap;rounded=0;" vertex="1" parent="1">
          <mxGeometry x="180" y="70" width="130" height="20" as="geometry" />
        </mxCell>
        <mxCell id="FP_Z5jyi7RjLG5Vz_oTM-17" style="edgeStyle=orthogonalEdgeStyle;rounded=0;orthogonalLoop=1;jettySize=auto;html=1;exitX=1;exitY=0.5;exitDx=0;exitDy=0;" edge="1" parent="1" source="FP_Z5jyi7RjLG5Vz_oTM-5" target="FP_Z5jyi7RjLG5Vz_oTM-7">
          <mxGeometry relative="1" as="geometry" />
        </mxCell>
        <mxCell id="FP_Z5jyi7RjLG5Vz_oTM-5" value="TradeRestController" style="rounded=0;whiteSpace=wrap;html=1;fillColor=#ffe6cc;strokeColor=#d79b00;" vertex="1" parent="1">
          <mxGeometry x="200" y="140" width="120" height="60" as="geometry" />
        </mxCell>
        <mxCell id="FP_Z5jyi7RjLG5Vz_oTM-6" value="Spring Web RestController" style="text;html=1;strokeColor=#6c8ebf;fillColor=#dae8fc;align=center;verticalAlign=middle;whiteSpace=wrap;rounded=0;" vertex="1" parent="1">
          <mxGeometry x="320" y="150" width="170" height="20" as="geometry" />
        </mxCell>
        <mxCell id="FP_Z5jyi7RjLG5Vz_oTM-18" style="edgeStyle=orthogonalEdgeStyle;rounded=0;orthogonalLoop=1;jettySize=auto;html=1;exitX=1;exitY=0.5;exitDx=0;exitDy=0;entryX=0.5;entryY=0;entryDx=0;entryDy=0;" edge="1" parent="1" source="FP_Z5jyi7RjLG5Vz_oTM-7" target="FP_Z5jyi7RjLG5Vz_oTM-8">
          <mxGeometry relative="1" as="geometry" />
        </mxCell>
        <mxCell id="FP_Z5jyi7RjLG5Vz_oTM-20" style="edgeStyle=orthogonalEdgeStyle;rounded=0;orthogonalLoop=1;jettySize=auto;html=1;exitX=0;exitY=0.5;exitDx=0;exitDy=0;entryX=0;entryY=0.5;entryDx=0;entryDy=0;" edge="1" parent="1" source="FP_Z5jyi7RjLG5Vz_oTM-7" target="FP_Z5jyi7RjLG5Vz_oTM-10">
          <mxGeometry relative="1" as="geometry" />
        </mxCell>
        <mxCell id="FP_Z5jyi7RjLG5Vz_oTM-21" style="edgeStyle=orthogonalEdgeStyle;rounded=0;orthogonalLoop=1;jettySize=auto;html=1;exitX=0.25;exitY=1;exitDx=0;exitDy=0;entryX=0;entryY=0.5;entryDx=0;entryDy=0;" edge="1" parent="1" source="FP_Z5jyi7RjLG5Vz_oTM-7" target="FP_Z5jyi7RjLG5Vz_oTM-11">
          <mxGeometry relative="1" as="geometry" />
        </mxCell>
        <mxCell id="FP_Z5jyi7RjLG5Vz_oTM-7" value="TradeMessageController" style="rounded=0;whiteSpace=wrap;html=1;fillColor=#fad7ac;strokeColor=#b46504;" vertex="1" parent="1">
          <mxGeometry x="310" y="220" width="200" height="60" as="geometry" />
        </mxCell>
        <mxCell id="FP_Z5jyi7RjLG5Vz_oTM-19" style="edgeStyle=orthogonalEdgeStyle;rounded=0;orthogonalLoop=1;jettySize=auto;html=1;exitX=0.5;exitY=1;exitDx=0;exitDy=0;entryX=0.465;entryY=1.067;entryDx=0;entryDy=0;entryPerimeter=0;" edge="1" parent="1" source="FP_Z5jyi7RjLG5Vz_oTM-8" target="FP_Z5jyi7RjLG5Vz_oTM-7">
          <mxGeometry relative="1" as="geometry" />
        </mxCell>
        <mxCell id="FP_Z5jyi7RjLG5Vz_oTM-26" style="edgeStyle=orthogonalEdgeStyle;rounded=0;orthogonalLoop=1;jettySize=auto;html=1;exitX=0.75;exitY=0;exitDx=0;exitDy=0;entryX=1;entryY=0.5;entryDx=0;entryDy=0;" edge="1" parent="1" source="FP_Z5jyi7RjLG5Vz_oTM-8" target="FP_Z5jyi7RjLG5Vz_oTM-9">
          <mxGeometry relative="1" as="geometry" />
        </mxCell>
        <mxCell id="FP_Z5jyi7RjLG5Vz_oTM-8" value="TradeMessageListner" style="rounded=0;whiteSpace=wrap;html=1;fillColor=#b1ddf0;strokeColor=#10739e;" vertex="1" parent="1">
          <mxGeometry x="480" y="320" width="200" height="60" as="geometry" />
        </mxCell>
        <mxCell id="FP_Z5jyi7RjLG5Vz_oTM-27" style="edgeStyle=orthogonalEdgeStyle;rounded=0;orthogonalLoop=1;jettySize=auto;html=1;exitX=0.5;exitY=1;exitDx=0;exitDy=0;" edge="1" parent="1" source="FP_Z5jyi7RjLG5Vz_oTM-9">
          <mxGeometry relative="1" as="geometry">
            <mxPoint x="606" y="320" as="targetPoint" />
          </mxGeometry>
        </mxCell>
        <mxCell id="FP_Z5jyi7RjLG5Vz_oTM-9" value="Cloud Kafka" style="shape=internalStorage;whiteSpace=wrap;html=1;backgroundOutline=1;fillColor=#e1d5e7;strokeColor=#9673a6;" vertex="1" parent="1">
          <mxGeometry x="580" y="30" width="200" height="140" as="geometry" />
        </mxCell>
        <mxCell id="FP_Z5jyi7RjLG5Vz_oTM-22" style="edgeStyle=orthogonalEdgeStyle;rounded=0;orthogonalLoop=1;jettySize=auto;html=1;exitX=1;exitY=0.5;exitDx=0;exitDy=0;entryX=1;entryY=0.25;entryDx=0;entryDy=0;" edge="1" parent="1" source="FP_Z5jyi7RjLG5Vz_oTM-10" target="FP_Z5jyi7RjLG5Vz_oTM-12">
          <mxGeometry relative="1" as="geometry" />
        </mxCell>
        <mxCell id="FP_Z5jyi7RjLG5Vz_oTM-10" value="TradeRepository" style="rounded=0;whiteSpace=wrap;html=1;fillColor=#d0cee2;strokeColor=#56517e;" vertex="1" parent="1">
          <mxGeometry x="600" y="430" width="200" height="60" as="geometry" />
        </mxCell>
        <mxCell id="FP_Z5jyi7RjLG5Vz_oTM-23" style="edgeStyle=orthogonalEdgeStyle;rounded=0;orthogonalLoop=1;jettySize=auto;html=1;exitX=1;exitY=0.5;exitDx=0;exitDy=0;entryX=0.993;entryY=0.663;entryDx=0;entryDy=0;entryPerimeter=0;" edge="1" parent="1" source="FP_Z5jyi7RjLG5Vz_oTM-11" target="FP_Z5jyi7RjLG5Vz_oTM-12">
          <mxGeometry relative="1" as="geometry" />
        </mxCell>
        <mxCell id="FP_Z5jyi7RjLG5Vz_oTM-11" value="TradeMessageRepository" style="rounded=0;whiteSpace=wrap;html=1;fillColor=#d0cee2;strokeColor=#56517e;" vertex="1" parent="1">
          <mxGeometry x="600" y="510" width="200" height="60" as="geometry" />
        </mxCell>
        <mxCell id="FP_Z5jyi7RjLG5Vz_oTM-12" value="MySQL" style="shape=internalStorage;whiteSpace=wrap;html=1;backgroundOutline=1;fillColor=#d5e8d4;strokeColor=#82b366;" vertex="1" parent="1">
          <mxGeometry x="470" y="600" width="150" height="80" as="geometry" />
        </mxCell>
        <mxCell id="FP_Z5jyi7RjLG5Vz_oTM-15" value="Kafka Stream&amp;nbsp;" style="text;html=1;strokeColor=#6c8ebf;fillColor=#dae8fc;align=center;verticalAlign=middle;whiteSpace=wrap;rounded=0;" vertex="1" parent="1">
          <mxGeometry x="670" y="320" width="110" height="20" as="geometry" />
        </mxCell>
        <mxCell id="FP_Z5jyi7RjLG5Vz_oTM-16" value="Spring Cloud Stream&amp;nbsp;" style="text;html=1;strokeColor=#6c8ebf;fillColor=#dae8fc;align=center;verticalAlign=middle;whiteSpace=wrap;rounded=0;" vertex="1" parent="1">
          <mxGeometry x="680" y="350" width="150" height="20" as="geometry" />
        </mxCell>
        <mxCell id="FP_Z5jyi7RjLG5Vz_oTM-24" value="JPA&amp;nbsp;" style="text;html=1;strokeColor=#6c8ebf;fillColor=#dae8fc;align=center;verticalAlign=middle;whiteSpace=wrap;rounded=0;" vertex="1" parent="1">
          <mxGeometry x="790" y="430" width="150" height="20" as="geometry" />
        </mxCell>
        <mxCell id="FP_Z5jyi7RjLG5Vz_oTM-25" value="Spring Component&amp;nbsp;" style="text;html=1;strokeColor=#6c8ebf;fillColor=#dae8fc;align=center;verticalAlign=middle;whiteSpace=wrap;rounded=0;" vertex="1" parent="1">
          <mxGeometry x="500" y="220" width="110" height="20" as="geometry" />
        </mxCell>
      </root>
    </mxGraphModel>
  </diagram>
</mxfile>
